<svg xmlns="http://www.w3.org/2000/svg" width="115.829" height="44.222" viewBox="0 0 115.829 44.222">
  <g id="Group_1137" data-name="Group 1137" transform="translate(-113.401 -511.036)">
    <path id="Path_6076" data-name="Path 6076" d="M121.906,516.156h3.569a1.4,1.4,0,0,1,1.551,1.59v5.611h5.12v-6.7c0-3.646-1.939-5.624-5.585-5.624h-9.31a.554.554,0,0,0-.62.62v11.7h5.275Z" transform="translate(0 0)" fill="#272c33"/>
    <path id="Path_6077" data-name="Path 6077" d="M127.026,535.395a1.376,1.376,0,0,1-1.551,1.552h-3.569v-7.289h-5.275v11.788c0,.427.194.621.62.621h9.31c3.646,0,5.585-1.94,5.585-5.586v-6.823h-5.12Z" transform="translate(0 0)" fill="#272c33"/>
    <path id="Path_6078" data-name="Path 6078" d="M145.219,531.362h-4.965l.312-1.7H135.5l-2.536,11.749c-.116.427.078.66.5.66h4.15a.6.6,0,0,0,.621-.543l1.047-5.663h6.9l1.086,5.663a.6.6,0,0,0,.621.543h4.112c.465,0,.62-.233.543-.66l-2.537-11.749h-5.107Z" transform="translate(0 0)" fill="#272c33"/>
    <path id="Path_6079" data-name="Path 6079" d="M119.643,552.185l-1.716-3.552h-1.264v6.57h1.282v-3.83l1.264,2.492h.867l1.255-2.492v3.83h1.283v-6.57h-1.264Z" transform="translate(0 0)" fill="#ff6417"/>
    <path id="Path_6080" data-name="Path 6080" d="M128.778,548.633l-2.39,6.569h1.338l.4-1.162h2.335l.387,1.162h1.338l-2.4-6.569Zm-.3,4.327.83-2.39.8,2.39Z" transform="translate(0 0)" fill="#ff6417"/>
    <path id="Path_6081" data-name="Path 6081" d="M139.7,552.655l-2.6-4.023h-1.144v6.57h1.282V551.17l2.6,4.032h1.144v-6.57H139.7Z" transform="translate(0 0)" fill="#ff6417"/>
    <path id="Path_6082" data-name="Path 6082" d="M148.937,552.905a1.141,1.141,0,1,1-2.279,0v-4.272h-1.283v4.318a2.421,2.421,0,0,0,4.836,0v-4.318h-1.274Z" transform="translate(0 0)" fill="#ff6417"/>
    <path id="Path_6083" data-name="Path 6083" d="M154.6,555.2h1.282v-2.666h2.593v-1.145h-2.593v-1.614h3.045v-1.144H154.6Z" transform="translate(0 0)" fill="#ff6417"/>
    <path id="Path_6084" data-name="Path 6084" d="M164.121,548.633l-2.39,6.569h1.338l.4-1.162H165.8l.388,1.162h1.338l-2.4-6.569Zm-.295,4.327.83-2.39.8,2.39Z" transform="translate(0 0)" fill="#ff6417"/>
    <path id="Path_6085" data-name="Path 6085" d="M173.411,549.721a1.087,1.087,0,0,1,1.107.932h1.3a2.315,2.315,0,0,0-2.417-2.076,2.423,2.423,0,0,0-1.772.719c-.664.664-.646,1.486-.646,2.621s-.018,1.957.646,2.622a2.426,2.426,0,0,0,1.772.719,2.321,2.321,0,0,0,2.417-2.077h-1.3a1.087,1.087,0,0,1-1.107.932,1.059,1.059,0,0,1-.821-.341c-.25-.277-.323-.591-.323-1.855s.073-1.578.323-1.855A1.059,1.059,0,0,1,173.411,549.721Z" transform="translate(0 0)" fill="#ff6417"/>
    <path id="Path_6086" data-name="Path 6086" d="M179.212,549.777h1.717V555.2h1.283v-5.426h1.716v-1.144h-4.715Z" transform="translate(0 0)" fill="#ff6417"/>
    <path id="Path_6087" data-name="Path 6087" d="M191.391,552.905a1.141,1.141,0,1,1-2.279,0v-4.272h-1.283v4.318a2.42,2.42,0,0,0,4.835,0v-4.318h-1.273Z" transform="translate(0 0)" fill="#ff6417"/>
    <path id="Path_6088" data-name="Path 6088" d="M201.761,550.644a1.985,1.985,0,0,0-2.131-2.011h-2.575V555.2h1.282v-2.62h.923l1.283,2.62h1.486l-1.468-2.832A1.77,1.77,0,0,0,201.761,550.644Zm-2.215.867h-1.209v-1.734h1.209a.869.869,0,1,1,0,1.734Z" transform="translate(0 0)" fill="#ff6417"/>
    <rect id="Rectangle_832" data-name="Rectangle 832" width="1.282" height="6.57" transform="translate(206.05 548.633)" fill="#ff6417"/>
    <path id="Path_6089" data-name="Path 6089" d="M215.568,552.655l-2.6-4.023h-1.144v6.57H213.1V551.17l2.6,4.032h1.145v-6.57h-1.283Z" transform="translate(0 0)" fill="#ff6417"/>
    <path id="Path_6090" data-name="Path 6090" d="M223.539,552.618h1.209v.249a1.269,1.269,0,0,1-.3.878,1.21,1.21,0,0,1-.914.368,1.062,1.062,0,0,1-.821-.341c-.249-.277-.314-.591-.314-1.855s.065-1.568.314-1.845a1.069,1.069,0,0,1,.821-.351,1.115,1.115,0,0,1,1.182.96h1.291a2.361,2.361,0,0,0-2.473-2.1,2.389,2.389,0,0,0-1.771.719c-.665.664-.646,1.486-.646,2.621s-.019,1.957.646,2.622a2.607,2.607,0,0,0,3.626-.029,2.6,2.6,0,0,0,.628-2v-.96h-2.483Z" transform="translate(0 0)" fill="#ff6417"/>
    <rect id="Rectangle_833" data-name="Rectangle 833" width="0.235" height="0.015" transform="translate(165.931 528.011)" fill="#2d2d2d"/>
    <rect id="Rectangle_834" data-name="Rectangle 834" width="0.195" height="0.003" transform="translate(226.039 525)" fill="#2d2d2d"/>
    <rect id="Rectangle_835" data-name="Rectangle 835" width="0.195" height="0.003" transform="translate(160.154 525)" fill="#2d2d2d"/>
    <path id="Path_6091" data-name="Path 6091" d="M209.458,525v0H114.925l-1.524,3.008H227.726l1.5-3.008Z" transform="translate(0 0)" fill="#ff6417"/>
    <path id="Path_6092" data-name="Path 6092" d="M142.736,517.824l1.015,5.533h4.9l-2.542-11.778a.6.6,0,0,0-.659-.543H140.06a.6.6,0,0,0-.659.543l-2.542,11.778h4.863Z" transform="translate(0 0)" fill="#272c33"/>
    <path id="Path_6093" data-name="Path 6093" d="M160.038,511.541a.67.67,0,0,0-.7-.5H155.5a.571.571,0,0,0-.621.62v11.7h9.385Z" transform="translate(0 0)" fill="#272c33"/>
    <path id="Path_6094" data-name="Path 6094" d="M171.441,511.656a.571.571,0,0,0-.62-.62h-4.034a.554.554,0,0,0-.621.62v11.7h5.275Z" transform="translate(0 0)" fill="#272c33"/>
    <path id="Path_6095" data-name="Path 6095" d="M189.285,511.656a.571.571,0,0,0-.62-.62H184.63a.554.554,0,0,0-.62.62v11.7h5.275Z" transform="translate(0 0)" fill="#272c33"/>
    <path id="Path_6096" data-name="Path 6096" d="M196.772,517.592a1.394,1.394,0,0,1,1.552-1.553h2.25a1.393,1.393,0,0,1,1.551,1.553v5.765h5v-6.736c0-3.645-1.94-5.585-5.586-5.585H197.2c-3.646,0-5.585,1.94-5.585,5.585v6.736h5.158Z" transform="translate(0 0)" fill="#272c33"/>
    <path id="Path_6097" data-name="Path 6097" d="M214.617,511.541a.67.67,0,0,0-.7-.5h-3.839a.571.571,0,0,0-.621.62v11.7h9.385Z" transform="translate(0 0)" fill="#272c33"/>
    <path id="Path_6098" data-name="Path 6098" d="M226.021,511.656a.572.572,0,0,0-.621-.62h-4.034a.554.554,0,0,0-.621.62v11.7h5.276Z" transform="translate(0 0)" fill="#272c33"/>
    <path id="Path_6099" data-name="Path 6099" d="M154.879,541.446a.571.571,0,0,0,.621.621h4.033a.554.554,0,0,0,.621-.621V529.658h-5.275Z" transform="translate(0 0)" fill="#272c33"/>
    <path id="Path_6100" data-name="Path 6100" d="M166.282,541.563a.67.67,0,0,0,.7.5h3.841a.571.571,0,0,0,.62-.621V529.658h-9.424Z" transform="translate(0 0)" fill="#272c33"/>
    <path id="Path_6101" data-name="Path 6101" d="M184.01,535.395a1.393,1.393,0,0,1-1.552,1.552h-2.017a1.393,1.393,0,0,1-1.551-1.552v-2.947a.571.571,0,0,0-.62-.622h-3.879a.554.554,0,0,0-.621.622v4.033c0,3.646,1.939,5.586,5.585,5.586H183.7c3.607,0,5.585-1.94,5.585-5.586v-6.823H184.01Z" transform="translate(0 0)" fill="#272c33"/>
    <path id="Path_6102" data-name="Path 6102" d="M202.125,535.512a1.376,1.376,0,0,1-1.551,1.551h-2.25a1.376,1.376,0,0,1-1.552-1.551v-5.854h-5.158v6.823c0,3.646,1.939,5.586,5.585,5.586h4.344c3.646,0,5.586-1.94,5.586-5.586v-6.823h-5Z" transform="translate(0 0)" fill="#272c33"/>
    <path id="Path_6103" data-name="Path 6103" d="M209.458,541.446a.571.571,0,0,0,.621.621h4.033a.554.554,0,0,0,.621-.621V529.658h-5.275Z" transform="translate(0 0)" fill="#272c33"/>
    <path id="Path_6104" data-name="Path 6104" d="M220.861,541.563a.67.67,0,0,0,.7.5h3.84a.571.571,0,0,0,.621-.621V529.658H216.6Z" transform="translate(0 0)" fill="#272c33"/>
  </g>
</svg>
